<svg xmlns="http://www.w3.org/2000/svg" viewBox="0 0 189.1 134"><defs><style>.cls-1{fill:#e94b3c;}.cls-2{fill:#1b1c1b;}</style></defs><title>Fichier 4</title><g id="Calque_2" data-name="Calque 2"><g id="Calque_1-2" data-name="Calque 1"><path class="cls-1" d="M39,134c-6.56-3.12-10.24-8.54-12.39-15.26-4.34-13.55-7.28-27.27-4.69-41.57C24.39,63.56,34.4,56.5,48.34,58.4c3.68.5,7.35,1.11,11.37.68C52.06,55,44.35,50.92,36.77,46.68A244.83,244.83,0,0,1,9.39,29.51,39.63,39.63,0,0,1,0,20V17c2.05-4.68,6-4.74,10.1-4,8.19,1.54,15.2,5.77,22,10.19,7.81,5.05,15.64,10.16,21.58,16.6a44.52,44.52,0,0,1-13-22.12C38.11,8,41.86,2.57,51.7.9,53.46.6,55.35,1,57,0H75c5.14,1,10.33,1.81,15.42,3C114.6,8.73,121.4,23.57,110,45.6,105.43,54.33,99.38,62,92.6,69.47c1.64.94,2.71.26,3.89-.13,23.41-7.84,46.75-16,71-20.85,5.56-1.12,11.15-2,16.83-1.48,4.77.39,6.11,3.31,3.23,7.11-2.72,3.56-6.68,5.39-10.74,7-14.08,5.4-28.91,7.23-43.74,8.89-9.37,1-18.78,1.66-28.24,3.08,7,.65,14.09,1.18,21.11,2,9.08,1,18.1,2.51,26.65,5.93a39.17,39.17,0,0,1,7.48,3.85c6.41,4.37,7.51,9.66,3.66,16.35-3.13,5.46-7.73,9.55-12.65,13.28-10.36,7.87-21,15.34-34.39,17-8.51,1-15.4-2-20.27-9C89.05,111.66,88,99.19,87,86.73c-.14-1.82,0-3.65,0-7-3.17,5.84-5.63,10.5-8.2,15.09A154.81,154.81,0,0,1,61.4,120.28c-5.12,6-11,10.83-18.4,13.72Z"/><path class="cls-2" d="M22.77,87.57c.24-3.14.15-6.35.78-9.42C26.31,64.72,34.76,58.56,48.3,60.21c13,1.59,24.9,6.67,36.4,12.77,2,1,2,2,1.15,3.73-7.34,16.09-16,31.36-27.95,44.54a50.37,50.37,0,0,1-7.41,6.66c-8.61,6.31-14.89,4.81-19.87-4.59-3.77-7.14-5.26-15-6.57-22.82C23.33,96.24,22.53,92,22.77,87.57Z"/><path class="cls-2" d="M67,2c11,.44,21.87,1.48,32.11,5.91q19.35,8.37,12.79,28.26C107.69,48.91,99.35,59.05,90.6,68.92c-1.45,1.65-2.63,1.46-4.13.06-14-13.06-28-26.18-37.82-42.89a38.07,38.07,0,0,1-3.49-7.66C42.49,10.07,45.48,5.07,54.1,3A47.93,47.93,0,0,1,67,2Z"/><path class="cls-2" d="M103.1,75c14.85,1.06,32.53,1.36,49.2,7.88,13.92,5.45,15.59,12.85,5.07,23.25-11,10.85-23.29,19.76-38.79,23-9.56,2-17.28-1.6-22.14-10.32-5.64-10.13-7.16-21.3-7.39-32.66S89,74.94,103.1,75Z"/><path class="cls-2" d="M76.46,64.63C53.29,53.32,30,42.48,9.35,27a32.43,32.43,0,0,1-6.12-5.81C1.14,18.58,2.36,17.36,5.18,17c3-.34,5.88.6,8.71,1.63,9.46,3.45,17.66,9.1,25.72,14.91A323.52,323.52,0,0,1,76.46,64.63Z"/><path class="cls-2" d="M103.05,69.78A403.85,403.85,0,0,1,148.2,55.06c10.89-2.92,21.75-6.13,33.17-6.19,1.88,0,4.61-.83,5.38,1.26.95,2.59-1.59,4.21-3.47,5.45-7.64,5-16.4,7-25.2,8.75A298.1,298.1,0,0,1,103.05,69.78Z"/></g></g></svg>