<svg xmlns="http://www.w3.org/2000/svg" viewBox="0 0 123.79 79.72"><defs><style>.cls-1{fill:none;stroke:#55b25b;stroke-miterlimit:10;stroke-width:2px;}</style></defs><title>flower-3</title><g id="Calque_2" data-name="Calque 2"><g id="Calque_1-2" data-name="Calque 1"><path class="cls-1" d="M55.84,46.34s-58.55-49.77-7.76-45,8.35,45.44,8.35,45.44"/><path class="cls-1" d="M57.92,46.65s74.57-18.58,27-36.89-27.68,37-27.68,37"/><path class="cls-1" d="M56.51,46.68c0,13.15-66.14-17.62-54-35.83,7.25-10.9,54,35.63,54,35.63"/><path class="cls-1" d="M55.25,46.34s65.26-25.84,63.54-12.87c-2.73,20.61-62.23,17.82-63.4,13"/><path class="cls-1" d="M55.86,46.49c1.43-.06,121.58-3.5,36.5,28.1-47.82,17.76-37-27.49-37-27.49"/><path class="cls-1" d="M56.05,47.23c5.61-3.92,2.9,39.21-40.81,19.08C-31.09,45,55.75,46.24,55.75,46.24"/></g></g></svg>