<svg xmlns="http://www.w3.org/2000/svg" viewBox="0 0 496.03 324.52"><defs><style>.cls-1{fill:#e94b3d;}</style></defs><title>rosemin</title><g id="Calque_2" data-name="Calque 2"><g id="Calque_4" data-name="Calque 4"><path class="cls-1" d="M228.55,189S-15.47-18.45,196.21,1.33,231,190.72,231,190.72"/><path class="cls-1" d="M221,197.59S393.85,217.2,384.83,84.79,219.51,197.14,219.51,197.14"/><path class="cls-1" d="M231.35,190.4C231.24,245.21-44.3,117,6.18,41,36.37-4.38,231.35,189.55,231.35,189.55"/><path class="cls-1" d="M226.1,189S498.12,81.28,491,135.34c-11.38,85.88-259.37,74.26-264.24,54.21"/><path class="cls-1" d="M228.68,189.6c-12.93,3.86,485.92-10.06,152.1,117.12-198.67,75.7-154.06-114.57-154.06-114.57"/><path class="cls-1" d="M229.43,192.68c23.41-16.36,12.1,163.42-170.08,79.53-193.11-88.9,168.85-83.67,168.85-83.67"/></g></g></svg>