<svg xmlns="http://www.w3.org/2000/svg" viewBox="0 0 770 514.51"><defs><style>.cls-1{fill:#e94b3d;}</style></defs><title>rose</title><g id="Calque_2" data-name="Calque 2"><g id="Calque_4" data-name="Calque 4"><path class="cls-1" d="M354.79,299.6S-24-29.25,304.58,2.11s54,300.27,54,300.27"/><path class="cls-1" d="M327.34,282.94s325.38,90.7,306.15-162.41S324.62,281.64,324.62,281.64"/><path class="cls-1" d="M359.14,301.87C359,388.77-68.78,185.42,9.59,65.06c46.86-72,349.55,235.46,349.55,235.46"/><path class="cls-1" d="M351,299.58s422.26-170.71,411.13-85c-17.66,136.15-402.62,117.73-410.19,85.94"/><path class="cls-1" d="M355,300.61c-20.07,6.11,754.31-15.95,236.12,185.68-308.4,120-239.16-181.65-239.16-181.65"/><path class="cls-1" d="M356.15,305.49c36.34-25.94,18.78,259.09-264,126.09-299.77-141,262.11-132.67,262.11-132.67"/></g></g></svg>