<?xml version="1.0" encoding="utf-8"?>
<!-- Generator: Adobe Illustrator 22.1.0, SVG Export Plug-In . SVG Version: 6.00 Build 0)  -->
<svg version="1.1" id="Calque_1" xmlns="http://www.w3.org/2000/svg" xmlns:xlink="http://www.w3.org/1999/xlink" x="0px" y="0px"
	 viewBox="0 0 192.9 193.1" style="enable-background:new 0 0 192.9 193.1;" xml:space="preserve">
<style type="text/css">
	.st0{fill:#191414;stroke:#FFFFFF;stroke-width:0.25;stroke-miterlimit:10;}
	.st1{fill:#1ED760;}
	.st2{fill:#191414;}
	.st3{fill:none;}
</style>
<title>1_2</title>
<g id="Calque_1-2">
	<path class="st0" d="M50,0h92.9c27.6,0,50,22.4,50,50v93.1c0,27.6-22.4,50-50,50H50c-27.6,0-50-22.4-50-50V50C0,22.4,22.4,0,50,0z"
		/>
	<path class="st1" d="M96.6,167.7c-39.3,0-71.2-31.9-71.2-71.2c0,0,0,0,0,0c0-39.1,32.3-71.2,71.4-71.1
		c39.3,0.5,70.7,32.8,70.2,72.1C166.4,136.1,135.2,167.3,96.6,167.7z"/>
	<path class="st2" d="M148.8,84.8c0,5.3-5,8.2-10,5.5c-23.5-12.3-48.5-14.1-74.3-10.1c-2.5,0.4-4.8,1.2-7.3,1.8
		c-4.7,1.1-8.1-0.6-9.2-4.5c-1.1-3.7,1.2-7.1,5.8-8.3c13.9-3.9,28.2-4.7,42.6-3.7C113,66.5,129,69.9,143.8,78
		C146.6,79.5,148.9,81.2,148.8,84.8z"/>
	<path class="st2" d="M84.7,89.4c17.1,0.3,32.8,3.5,47.4,11.1c1,0.5,2.1,1.1,3.1,1.7c3.4,1.9,4.9,4.8,2.9,8.3c-2,3.3-5,3.2-8.2,1.4
		c-16.1-9.2-33.6-12.2-51.9-11c-5.8,0.3-11.6,1.4-17.2,3c-3.8,1.1-6.9,0.1-7.8-3.9c-0.9-3.8,1.5-5.8,5-6.8
		C66.6,90.8,75.6,89.5,84.7,89.4z"/>
	<path class="st2" d="M85,112.8c14.9-0.2,28.4,2.8,40.8,9.8c1.9,1.1,3.9,2.1,4.1,4.6c0.2,1.5-0.5,3-1.7,3.9
		c-1.9,1.4-3.7,0.9-5.6-0.2c-10.7-6.4-22.4-9.1-34.7-9.4c-8.5-0.2-17,0.7-25.2,2.6c-3.2,0.7-6,0.6-6.8-2.8c-1-3.9,1.9-5.1,5.1-5.8
		C68.8,113.8,76.9,112.9,85,112.8z"/>
	<path class="st3" d="M169.2,25.4H24.7V170h144.5L169.2,25.4z"/>
</g>
</svg>
