<svg xmlns="http://www.w3.org/2000/svg" viewBox="0 0 193.92 194.13"><defs><style>.cls-1,.cls-3{fill:#1ed760;}.cls-1{stroke:#fff;stroke-miterlimit:10;}.cls-2{fill:#191414;}.cls-4{fill:none;}</style></defs><title>2_1</title><g id="Calque_2" data-name="Calque 2"><g id="Calque_1-2" data-name="Calque 1"><rect class="cls-1" x="0.5" y="0.5" width="192.92" height="193.13" rx="50" ry="50"/><path class="cls-2" d="M97.05,168.18A71.15,71.15,0,0,1,25.9,97c0-39.13,32.31-71.24,71.39-71.06a71.12,71.12,0,0,1-.24,142.23Z"/><path class="cls-3" d="M151.29,85.26c0,5.25-5,8.15-10,5.53C117.74,78.44,92.77,76.69,67,80.7c-2.45.39-4.83,1.21-7.26,1.75C55,83.51,51.7,81.87,50.57,78c-1.07-3.7,1.21-7.07,5.83-8.35C70.35,65.76,84.62,64.9,99,65.9c16.55,1.14,32.57,4.54,47.33,12.58C149.06,80,151.36,81.72,151.29,85.26Z"/><path class="cls-3" d="M87.16,90c17.12.34,32.78,3.53,47.38,11.13,1,.54,2.05,1.12,3.06,1.69,3.38,1.93,4.94,4.77,2.87,8.29-2,3.35-5,3.21-8.23,1.39-16.12-9.17-33.56-12.23-51.89-11a77,77,0,0,0-17.16,3c-3.77,1.12-6.87.06-7.83-3.9-.92-3.78,1.54-5.78,5-6.78A103.82,103.82,0,0,1,87.16,90Z"/><path class="cls-3" d="M87.53,113.33c14.9-.17,28.36,2.83,40.84,9.82,1.88,1.06,3.88,2.06,4.08,4.62a4.11,4.11,0,0,1-1.73,3.9c-1.89,1.35-3.73.92-5.59-.19-10.69-6.37-22.38-9.13-34.71-9.38a101.1,101.1,0,0,0-25.24,2.61c-3.15.74-6,.58-6.84-2.85-1-3.94,1.93-5.13,5.12-5.8A112.34,112.34,0,0,1,87.53,113.33Z"/><path class="cls-4" d="M169.71,25.85H25.21V170.51h144.5Z"/></g></g></svg>