<svg xmlns="http://www.w3.org/2000/svg" viewBox="0 0 192.92 193.13"><defs><style>.cls-1{fill:#191414;}.cls-2{fill:#fff;}.cls-3{fill:none;}</style></defs><title>3_1</title><g id="Calque_2" data-name="Calque 2"><g id="Calque_1-2" data-name="Calque 1"><rect class="cls-1" width="192.92" height="193.13" rx="50" ry="50"/><path class="cls-2" d="M96.55,167.68A71.15,71.15,0,0,1,25.4,96.51c0-39.13,32.31-71.24,71.39-71.06a71.12,71.12,0,0,1-.24,142.23Z"/><path class="cls-1" d="M150.79,84.76c0,5.25-5,8.15-10,5.53C117.24,77.94,92.27,76.19,66.52,80.2c-2.45.39-4.83,1.21-7.26,1.75-4.73,1.06-8.06-.58-9.19-4.46-1.07-3.7,1.21-7.07,5.83-8.35,13.95-3.88,28.22-4.74,42.57-3.74C115,66.54,131,69.94,145.8,78,148.56,79.49,150.86,81.22,150.79,84.76Z"/><path class="cls-1" d="M86.66,89.45c17.12.34,32.78,3.53,47.38,11.13,1,.54,2.05,1.12,3.06,1.69,3.38,1.93,4.94,4.77,2.87,8.29-2,3.35-5,3.21-8.23,1.39-16.12-9.17-33.56-12.23-51.89-11a77,77,0,0,0-17.16,3c-3.77,1.12-6.87.06-7.83-3.9-.92-3.78,1.54-5.78,5-6.78A103.82,103.82,0,0,1,86.66,89.45Z"/><path class="cls-1" d="M87,112.83c14.9-.17,28.36,2.83,40.84,9.82,1.88,1.06,3.88,2.06,4.08,4.62a4.11,4.11,0,0,1-1.73,3.9c-1.89,1.35-3.73.92-5.59-.19-10.69-6.37-22.38-9.13-34.71-9.38a101.1,101.1,0,0,0-25.24,2.61c-3.15.74-6,.58-6.84-2.85-1-3.94,1.93-5.13,5.12-5.8A112.34,112.34,0,0,1,87,112.83Z"/><path class="cls-3" d="M169.21,25.35H24.71V170h144.5Z"/></g></g></svg>